<svg id="Layer_1" data-name="Layer 1" xmlns="http://www.w3.org/2000/svg" width="512" height="512" viewBox="0 0 512 512">
  <defs>
    <style>
      .cls-1 {
        fill: #4000d0;
      }
    </style>
  </defs>
  <g>
    <path class="cls-1" d="M4.68,459.41a5.89,5.89,0,0,1,8.24-.79c5,4.06,13.54,8.8,21.55,8.69a24.37,24.37,0,0,0,14.11-4.17c3.38-2.49,4.85-5.31,4.85-8.13a6.49,6.49,0,0,0-1-3.61A10.73,10.73,0,0,0,49,448c-3.27-2.14-8.8-4.06-15.46-5.3h-.23a61.42,61.42,0,0,1-14.56-4.4A24.36,24.36,0,0,1,8.29,429.5a17.33,17.33,0,0,1-2.6-9.25c0-6.77,3.84-12.64,9-16.48a33.44,33.44,0,0,1,19.53-6c10.83,0,18.84,5.3,24.6,9a5.81,5.81,0,0,1,1.58,8,5.69,5.69,0,0,1-8,1.69c-5.76-3.83-11.29-7.22-18.17-7.22a21.52,21.52,0,0,0-12.64,3.84c-3.05,2.26-4.29,4.74-4.29,7.11a5.44,5.44,0,0,0,.79,3.16,10.82,10.82,0,0,0,3,2.93c2.94,2,8,3.84,14.11,5h.23a66.66,66.66,0,0,1,15.57,4.74c4.63,2.26,8.69,5.19,11.29,9.37A18.29,18.29,0,0,1,65.06,455c0,7.22-4.07,13.43-9.71,17.49a35.31,35.31,0,0,1-20.88,6.44c-12.19-.12-22.46-6.21-28.89-11.29A6,6,0,0,1,4.68,459.41Z"/>
    <path class="cls-1" d="M129,412.58H111.1v60.26a6.12,6.12,0,0,1-6.21,6.21,6.19,6.19,0,0,1-6.2-6.21V412.58H80.85a6.28,6.28,0,0,1-6.2-6.33,6.11,6.11,0,0,1,6.2-6.2H129a6.19,6.19,0,0,1,6.21,6.2A6.37,6.37,0,0,1,129,412.58Z"/>
    <path class="cls-1" d="M153.87,472.84V406.25a6.12,6.12,0,0,1,6.21-6.2H197a6.26,6.26,0,0,1,6.21,6.2,6.37,6.37,0,0,1-6.21,6.33H166.4v20.65h26.29a6.27,6.27,0,0,1,0,12.53H166.4v20.76H197a6.27,6.27,0,0,1,0,12.53H160.42c-.23,0-.23-.11-.23-.11l-.11.11A6.19,6.19,0,0,1,153.87,472.84Z"/>
    <path class="cls-1" d="M246.52,477.92a4,4,0,0,0-.79-.56c0-.12-.11-.12-.11-.34a3.29,3.29,0,0,1-.56-.68s-.12,0-.12-.11a3.74,3.74,0,0,0-.56-.91l-27.65-65.91a6,6,0,0,1,3.38-8,6.1,6.1,0,0,1,8,3.27l22,52.26,22-52.26a6.22,6.22,0,0,1,11.51,4.74l-27.87,65.91a3.85,3.85,0,0,1-.45.91c0,.11,0,.11-.12.11-.11.22-.45.45-.56.68a.87.87,0,0,1-.23.34c-.22.22-.45.33-.67.56l-.23.11a6.76,6.76,0,0,1-.9.57c-.11,0-.11,0-.23.11a2.49,2.49,0,0,0-.9.23h-.23a4.34,4.34,0,0,1-1.13.11,3.91,3.91,0,0,1-1.12-.11h-.23a2.55,2.55,0,0,0-.9-.23.11.11,0,0,0-.11-.11h-.12c-.22-.12-.68-.46-1-.68Z"/>
    <path class="cls-1" d="M302.05,472.84V406.25a6.12,6.12,0,0,1,6.21-6.2h36.9a6.27,6.27,0,0,1,6.21,6.2,6.37,6.37,0,0,1-6.21,6.33H314.57v20.65h26.3a6.27,6.27,0,0,1,0,12.53h-26.3v20.76h30.59a6.27,6.27,0,0,1,0,12.53H308.59c-.22,0-.22-.11-.22-.11l-.11.11A6.19,6.19,0,0,1,302.05,472.84Z"/>
    <path class="cls-1" d="M381.38,472.84a6.15,6.15,0,1,1-12.3,0V407.16a6.09,6.09,0,0,1,2.49-5.19,6.21,6.21,0,0,1,8.57,1.35l36.46,50.45v-46.5a6.13,6.13,0,0,1,6.09-6.09,6.24,6.24,0,0,1,6.21,6.09v65.57a6.26,6.26,0,0,1-6.21,6.21,6.14,6.14,0,0,1-4.63-2.26,3.05,3.05,0,0,1-.56-.68L381.38,426Z"/>
    <path class="cls-1" d="M503.16,412.58h-18v60.26a6.12,6.12,0,0,1-6.21,6.21,6.19,6.19,0,0,1-6.2-6.21V412.58H455a6.29,6.29,0,0,1-6.21-6.33,6.12,6.12,0,0,1,6.21-6.2h48.19a6.19,6.19,0,0,1,6.2,6.2A6.36,6.36,0,0,1,503.16,412.58Z"/>
  </g>
  <path class="cls-1" d="M208.16,292.75c15.32,3.14,30.93,5.59,46.59,5.92a163.69,163.69,0,0,0,42.91-4.86,189,189,0,0,0,21.13-6.68,172,172,0,0,0,23.36-10.46,116.26,116.26,0,0,0,31.59-26c8.12-9.53,15.78-20.26,21.1-31.63a116.06,116.06,0,0,0,10.57-42.58c1.55-26-4.78-52.93-16.71-76-11.64-22.55-31.23-40.8-53.3-53a150.53,150.53,0,0,0-78.08-18.87,137.4,137.4,0,0,0-75,25.71c-21.56,15.61-39.31,36.68-50,61.18a146.36,146.36,0,0,0-11.25,41,135.58,135.58,0,0,0,3.18,49.1c7,28,24.42,51.16,38.18,76A184.76,184.76,0,0,1,171,298.61l-1.07-2.53c3.27,7.78,6.94,24.23,6.94,24.23-2.26-.09-5.41-.32-13.44-1.38l2.81.38q-10.53-1.41-20.92-3.68c-6.34-1.39-16.85-3.9-18-4.92,1-1.1,2.55-2.6,3.08-3.12,2.21-2.16,4.68-4.08,7.06-6q4.27-3.56,8.63-7c2-1.57,3.09-5.08,3.09-7.48a10.76,10.76,0,0,0-3.09-7.48,10.62,10.62,0,0,0-7.49-3.1,12.27,12.27,0,0,0-7.48,3.1q-6.87,5.43-13.54,11.12c-7.38,6.3-13.81,16.43-10.76,26.49a20.22,20.22,0,0,0,10.33,12.17,65.64,65.64,0,0,0,12.71,4.31,254.44,254.44,0,0,0,26.08,5.38,280.27,280.27,0,0,0,31.68,3.09c5.94.23,10.27-5,10.58-10.58,1.93-34.59-19.44-63.77-36-92.17a213.26,213.26,0,0,1-12.63-24.57l1.07,2.53a124,124,0,0,1-8.43-30.95l.37,2.81a130.07,130.07,0,0,1,0-34.31l-.38,2.81a130.76,130.76,0,0,1,9-32.7l-1.07,2.53a138.65,138.65,0,0,1,9.25-18.08q2.71-4.45,5.75-8.71c.94-1.31,1.91-2.59,2.88-3.88-2.25,3-.26.36.24-.26s1.17-1.45,1.77-2.17a141.45,141.45,0,0,1,14.14-14.62q1.8-1.6,3.65-3.15c.65-.55,1.31-1.08,2-1.61.26-.22.53-.43.8-.64l.79-.63-1.13.88c2.77-2.09,5.59-4.11,8.51-6A132.06,132.06,0,0,1,218.84,58L216.31,59a125.57,125.57,0,0,1,31.53-8.61L245,50.8a135.69,135.69,0,0,1,35.9.07l-2.82-.37a142.11,142.11,0,0,1,35.7,9.76l-2.52-1.07a142.19,142.19,0,0,1,17.67,9c2.79,1.68,5.53,3.46,8.19,5.33q1.89,1.33,3.74,2.73c.61.46,1.77,1.42-.71-.56.26.21.54.42.8.64.74.58,1.48,1.17,2.2,1.77a126.61,126.61,0,0,1,14.23,13.75c1,1.16,2,2.33,3,3.53l1.46,1.81c.87,1.09-1.8-2.37-.81-1l.69.91c1.5,2,2.92,4.13,4.25,6.28a124.67,124.67,0,0,1,8.67,16.9l-1.07-2.52a145.73,145.73,0,0,1,10,36.83l-.38-2.81a126.71,126.71,0,0,1,.14,33.47l.38-2.81A102.5,102.5,0,0,1,376.83,208l1.06-2.53A106.68,106.68,0,0,1,369.48,221q-2,3.19-4.2,6.3c-.75,1.08-1.52,2.15-2.3,3.21l-1.11,1.5c-1.53,2,1.35-1.72.07-.09A118.47,118.47,0,0,1,351.08,244q-3.13,3-6.5,5.76c-.55.44-1.11.86-1.65,1.31,2.62-2.18.71-.55,0-.05q-2,1.46-4,2.82a117.91,117.91,0,0,1-19.89,10.62l2.52-1.07c-14.75,6.2-30.06,11-45.95,13.22l2.81-.37c-15.2,2-30.52,1.54-45.7-.47l2.81.38c-7.3-1-14.56-2.29-21.77-3.76-5.41-1.11-11.69,1.56-13,7.39-1.2,5.28,1.59,11.83,7.39,13Z"/>
</svg>
