<svg id="Layer_1" data-name="Layer 1" xmlns="http://www.w3.org/2000/svg" width="512" height="512" viewBox="0 0 512 512">
  <defs>
    <style>
      .cls-1 {
        fill: #4000d0;
      }
    </style>
  </defs>
  <path class="cls-1" d="M196,391.34c19.3,4,39,7,58.69,7.46a206.4,206.4,0,0,0,54-6.12,238.79,238.79,0,0,0,26.61-8.41,217.87,217.87,0,0,0,29.43-13.18,146.37,146.37,0,0,0,39.79-32.7c10.23-12,19.88-25.52,26.59-39.85a146.41,146.41,0,0,0,13.3-53.63c1.95-32.8-6-66.68-21-95.8C408.72,120.7,384,97.72,356.24,82.34c-29.78-16.48-64.3-25.12-98.36-23.77A173.11,173.11,0,0,0,163.47,91C136.3,110.61,114,137.16,100.54,168A184.31,184.31,0,0,0,86.38,219.6a170.68,170.68,0,0,0,4,61.85c8.84,35.25,30.76,64.44,48.09,95.72a227.94,227.94,0,0,1,10.64,21.55l-1.34-3.18c4.11,9.8,8.73,30.52,8.73,30.52-2.84-.12-6.81-.41-16.92-1.74l3.54.48q-13.26-1.79-26.35-4.64c-8-1.75-21.23-4.91-22.68-6.2,1.3-1.39,3.21-3.27,3.88-3.92,2.78-2.73,5.9-5.14,8.89-7.62,3.6-3,7.21-5.93,10.87-8.83,2.5-2,3.9-6.39,3.9-9.42a13.55,13.55,0,0,0-3.9-9.42,13.37,13.37,0,0,0-9.42-3.91c-3.76.17-6.5,1.59-9.43,3.91q-8.64,6.86-17.06,14c-9.29,7.93-17.39,20.69-13.55,33.37a25.54,25.54,0,0,0,13,15.33c5.1,2.53,10.54,4,16,5.42a316.82,316.82,0,0,0,32.85,6.78,355.49,355.49,0,0,0,39.89,3.9c7.49.28,12.94-6.35,13.33-13.33,2.44-43.57-24.48-80.33-45.37-116.1a270.45,270.45,0,0,1-15.9-30.95l1.34,3.18a156.4,156.4,0,0,1-10.62-39l.48,3.54a163.72,163.72,0,0,1,0-43.22l-.48,3.54a164.61,164.61,0,0,1,11.34-41.19l-1.34,3.18a175.06,175.06,0,0,1,11.66-22.77q3.4-5.62,7.24-11c1.18-1.66,2.4-3.28,3.63-4.9-2.84,3.76-.34.46.29-.33s1.48-1.82,2.24-2.72a177,177,0,0,1,17.8-18.42q2.26-2,4.61-4c.82-.68,1.64-1.36,2.48-2l1-.79,1-.79-1.43,1.1c3.49-2.63,7.05-5.17,10.72-7.55a163.9,163.9,0,0,1,25.37-13.48L206.23,97A158.18,158.18,0,0,1,246,86.1l-3.55.48a170.73,170.73,0,0,1,45.22.08l-3.54-.47a180,180,0,0,1,45,12.29l-3.19-1.34a177.58,177.58,0,0,1,22.27,11.29c3.51,2.11,7,4.35,10.31,6.71q2.38,1.68,4.71,3.44c.76.58,2.23,1.78-.9-.71l1,.8c.93.74,1.86,1.49,2.77,2.24A160.22,160.22,0,0,1,384,138.23q1.94,2.19,3.79,4.45.92,1.13,1.83,2.28c1.1,1.37-2.27-3-1-1.32l.87,1.15c1.89,2.56,3.67,5.21,5.35,7.91A153.73,153.73,0,0,1,405.7,174l-1.34-3.18A183.53,183.53,0,0,1,417,217.21l-.47-3.54a159.55,159.55,0,0,1,.17,42.16l.47-3.55a128.44,128.44,0,0,1-8.75,32.27l1.34-3.19a134.19,134.19,0,0,1-10.6,19.55q-2.57,4-5.28,7.93-1.42,2-2.9,4.05-.69.94-1.41,1.89c-1.92,2.55,1.71-2.17.1-.11A147.35,147.35,0,0,1,376,329.88q-3.94,3.8-8.18,7.25c-.69.56-1.39,1.09-2.07,1.65,3.29-2.74.89-.69,0,0q-2.47,1.83-5,3.55a148.39,148.39,0,0,1-25.06,13.37l3.19-1.34C320.26,362.11,301,368.21,281,371l3.54-.48c-19.15,2.57-38.45,1.94-57.57-.59l3.55.48c-9.2-1.24-18.34-2.88-27.43-4.74-6.81-1.39-14.73,2-16.4,9.31-1.51,6.65,2,14.9,9.31,16.39Z"/>
</svg>
